<svg style="height: 512px; width: 512px;" xmlns="http://www.w3.org/2000/svg" viewBox="0 0 512 512"><defs><filter id="shadow-2" height="300%" width="300%" x="-100%" y="-100%"><feFlood flood-color="rgba(245, 166, 35, 1)" result="flood"></feFlood><feComposite in="flood" in2="SourceGraphic" operator="atop" result="composite"></feComposite><feGaussianBlur in="composite" stdDeviation="5" result="blur"></feGaussianBlur><feOffset dx="0" dy="0" result="offset"></feOffset><feComposite in="SourceGraphic" in2="offset" operator="over"></feComposite></filter><filter id="shadow-4" height="300%" width="300%" x="-100%" y="-100%"><feFlood flood-color="rgba(245, 166, 35, 1)" result="flood"></feFlood><feComposite in="flood" in2="SourceGraphic" operator="atop" result="composite"></feComposite><feGaussianBlur in="composite" stdDeviation="5" result="blur"></feGaussianBlur><feOffset dx="0" dy="0" result="offset"></feOffset><feComposite in="SourceGraphic" in2="offset" operator="over"></feComposite></filter><radialGradient id="delapouite-two-coins-gradient-1"><stop offset="0%" stop-color="#f8e71c" stop-opacity="1"></stop><stop offset="100%" stop-color="#ffffff" stop-opacity="1"></stop></radialGradient><radialGradient id="delapouite-two-coins-gradient-2"><stop offset="0%" stop-color="#ffffff" stop-opacity="1"></stop><stop offset="100%" stop-color="#f8e71c" stop-opacity="1"></stop></radialGradient><radialGradient id="delapouite-two-coins-gradient-4"><stop offset="0%" stop-color="#f5a623" stop-opacity="1"></stop><stop offset="100%" stop-color="#f8e71c" stop-opacity="1"></stop></radialGradient></defs><g class="" style="" transform="translate(0,0)"><g transform="translate(25.6, 25.6) scale(0.9, 0.9) rotate(0, 256, 256) skewX(0) skewY(0)"><path d="M264.4 95.01C228.8 94.95 184.2 106.2 140.2 129.1C96.27 152 61.45 182 41.01 211.3C20.56 240.5 15.03 267.7 25.09 287.1C35.16 306.4 60.62 317.5 96.31 317.5C132 317.6 176.6 306.3 220.5 283.5C264.5 260.6 299.3 230.5 319.7 201.3C340.2 172.1 345.6 144.9 335.6 125.5C325.5 106.2 300.1 95.01 264.4 95.01Z" class="" fill="url(#delapouite-two-coins-gradient-2)" stroke="#f5a623" stroke-opacity="0.7" stroke-width="19" filter="url(#shadow-2)"></path><path d="M356.3 165.3C352.8 180.6 345.2 196.3 334.5 211.6C311.9 243.9 275 275.4 228.8 299.4C182.6 323.5 135.7 335.6 96.3 335.6C77.7 335.6 60.46 332.8 45.93 326.9L56.52 347.3C66.6 366.7 91.99 377.8 127.7 377.8C163.4 377.8 208 366.6 251.9 343.7C295.9 320.9 330.7 290.8 351.1 261.5C371.5 232.3 377.1 205.1 367 185.8Z" class="" fill="#f8e71c" fill-opacity="1" stroke="#f5a623" stroke-opacity="0.7" stroke-width="19"></path><path d="M385.1 182.1C396.3 208.8 387.3 241.3 365.9 271.8C347 298.9 318.1 325.2 282.3 347.2C293.4 348.4 305 349 316.8 349C366.3 349 411.1 338.4 442.7 321.9C474.4 305.4 491.8 283.8 491.8 262C491.8 240.2 474.4 218.6 442.7 202.1C426.6 193.7 407 186.8 385.1 182.1Z" class="" fill="url(#delapouite-two-coins-gradient-4)" stroke="#f5a623" stroke-opacity="0.71" stroke-width="19" filter="url(#shadow-4)"></path><path d="M491.8 306.9C481.6 318.8 467.6 329.3 451.1 337.9C416.1 356.1 368.9 367 316.8 367C295.6 367 275.2 365.2 256.1 361.8C232.9 373.5 209.6 382.2 187.2 387.9C188.4 388.6 189.6 389.2 190.9 389.9C222.5 406.4 267.3 417 316.8 417C366.3 417 411.1 406.4 442.7 389.9C474.4 373.4 491.8 351.8 491.8 330Z" class="selected" fill="#f8e71c" fill-opacity="1" stroke="#f5a623" stroke-opacity="0.58" stroke-width="19"></path></g></g></svg>